<svg xmlns="http://www.w3.org/2000/svg" xmlns:xlink="http://www.w3.org/1999/xlink" version="1.1" x="0px" y="0px" viewBox="0 0 100 125" style="enable-background:new 0 0 100 100;" xml:space="preserve"><style type="text/css">
	.st0{fill-rule:evenodd;clip-rule:evenodd;}
</style><g><path d="M89.9,29.5l-2.2-5c0-3.4-0.8-6.3-2.3-8.6c-0.6-1.9,0-5.3,0.3-6.5c0.1-0.4,0-0.8-0.4-1c-0.3-0.2-0.8-0.3-1.1,0   c-1.3,0.8-2.2,1.8-2.8,2.6c0.3-1.6,1-3.4,1.5-4.3c0.3-0.4,0.1-0.9-0.2-1.2c0,0-0.1-0.1-0.1-0.1c0,0,0,0,0,0c0,0-0.1,0-0.1,0   c-0.1,0-0.2-0.1-0.3-0.1c0,0,0,0,0,0c-0.1,0-0.2,0-0.3,0c-12.5,2.2-21,13.9-19.3,26.3C42.3,38.6,31,62,34.3,90   c-11.1-1.3-19.7-10.8-19.7-22.2c0-8.5,4.6-15.7,12.8-20.2C38.7,41.4,38.1,34,37.9,31.2c-0.3-4-2.1-7.5-5.1-10   c-3.1-2.5-7.2-3.6-11.2-3.1c-1.3,0.2-2.2,1.4-2,2.7c0.1,0.6,0.4,1.2,0.9,1.6c0.5,0.4,1.1,0.5,1.7,0.5c2.7-0.4,5.5,0.4,7.6,2.1   c1.4,1.1,3.1,3.2,3.4,6.6c0.2,2.5,0.5,7.2-8.1,11.9C15.4,48.8,9.9,57.7,9.9,67.9c0,14.6,11.4,26.5,26.1,27.1l32.9,0   c1.1,0,1.8-1,1.8-2.4c0-1.2-0.5-2.4-1.3-3.3c-0.7-0.8-2.1-1.8-4.4-1.8h-2.4c2.8-1.4,5.3-3.6,7-6.3l-0.2,3.5L76,94.9l7.3,0   c1.1,0,1.8-1,1.8-2.4c0-1.2-0.5-2.4-1.3-3.3c-0.7-0.7-1.8-1.6-3.8-1.7l-2.6-4.7c-0.2-0.4-0.3-0.9-0.3-1.4c0-2.3,0.2-8.1,1-13.9   c0.4-3,1.1-6.1,1.6-8.8c0.8-3.8,1.5-7,1.5-9.4c0-6-1.9-11.4-3-14.1l5.4,1.7c0.2,0.1,0.5,0.1,0.7,0.1c0.7,0,1.4-0.3,1.8-0.8l3.5-4.2   C90.2,31.2,90.3,30.3,89.9,29.5z M83.4,11.7c-0.1,0.5-0.1,1.1-0.1,1.7c-0.2-0.2-0.4-0.4-0.7-0.5C82.7,12.6,83,12.2,83.4,11.7z    M88.1,30.7l-3.5,4.2C84.5,35,84.3,35,84.2,35L75,32.1c-0.5-0.2-1.1,0.1-1.2,0.6c-0.2,0.5,0.1,1.1,0.6,1.2l1.2,0.4   c0.6,1.1,3.5,7.6,3.5,14.9c0,2.2-0.7,5.4-1.4,9c-0.6,2.7-1.2,5.8-1.7,8.9c-0.8,5.9-1,11.9-1,14.1c0,0.8,0.2,1.6,0.6,2.3l3.2,5.7   h0.6c2.1,0,3,1,3.4,1.8c0.4,0.8,0.4,1.5,0.3,1.8l-6,0l-5.7-8.8l0.5-8c0-0.1,0-0.1,0-0.2c0.4-1.5,0.6-3,0.6-4.6c0-9.9-8.1-18-18-18   c-0.5,0-1,0.4-1,1s0.4,1,1,1c8.9,0,16.1,7.2,16.1,16.1c0,8.9-7.2,16.1-16.1,16.1c-0.5,0-1,0.4-1,1s0.4,1,1,1c0.1,0,0.2,0,0.3,0   c0,0,0,0,0,0h10.2c2.1,0,3,1,3.4,1.8c0.4,0.8,0.4,1.5,0.3,1.8L36,93c-13.5-0.5-24.1-11.6-24.1-25.1c0-9.4,5.2-17.7,14.3-22.7   c9.7-5.3,9.3-11.2,9.1-13.8c-0.3-4.1-2.4-6.6-4.1-8c-2.5-2-5.8-2.9-9.1-2.5c-0.1,0-0.2,0-0.3-0.1c-0.1,0-0.1-0.1-0.2-0.3   c0-0.2,0.1-0.4,0.3-0.5c3.5-0.5,7,0.5,9.7,2.7c2.6,2.1,4.1,5.1,4.4,8.6c0.2,2.5,0.7,9-9.5,14.6c-8.9,4.9-13.8,12.7-13.8,22   c0,12.7,9.9,23.4,22.6,24.3c0.6,0,1-0.4,1-0.9c0,0,0-0.1,0-0.1c0-0.1,0-0.2,0-0.3C32.7,63.1,43.7,40,63.7,33.1c0,0,0.1,0,0.1,0   c0.1,0,0.1,0,0.2,0c0.5-0.1,0.9-0.6,0.8-1.1c-1.9-11.1,5-21.7,15.7-24.6c-0.6,1.7-1.2,3.8-1.2,5.2c0,0,0,0,0,0c0,0,0,0,0,0   c0,0.1,0,0.1,0,0.1c0,0.1,0,0.1,0,0.2c0,0.1,0.1,0.1,0.1,0.2c0,0.1,0.1,0.1,0.1,0.2c0.1,0.1,0.1,0.1,0.2,0.1c0,0,0.1,0.1,0.1,0.1   c3.9,1.9,6,5.8,5.9,11.1c0,0,0,0,0,0c0,0.1,0,0.1,0,0.2c0,0.1,0,0.1,0,0.2c0,0,0,0,0,0l2.2,5.2C88.2,30.4,88.2,30.5,88.1,30.7z"/></g><text x="0" y="115" fill="#000000" font-size="5px" font-weight="bold" font-family="'Helvetica Neue', Helvetica, Arial-Unicode, Arial, Sans-serif">Created by Meaghan Hendricks</text><text x="0" y="120" fill="#000000" font-size="5px" font-weight="bold" font-family="'Helvetica Neue', Helvetica, Arial-Unicode, Arial, Sans-serif">from the Noun Project</text></svg>